# Blender v2.82 (sub 7) OBJ File: ''
# www.blender.org
mtllib Portal.mtl
o Portal-Stencil.png_sprite_mesh
v -0.239554 -5.707623 0.000000
v -0.552015 -5.676377 0.000000
v -0.895722 -5.593054 0.000000
v -1.499813 -5.343085 0.000000
v -2.030997 -4.999378 0.000000
v -2.280966 -4.791070 0.000000
v -2.603842 -4.468194 0.000000
v -3.030873 -3.926595 0.000000
v -3.374580 -3.353749 0.000000
v -3.676626 -2.687165 0.000000
v -3.895349 -2.020582 0.000000
v -4.061995 -1.260260 0.000000
v -4.155733 -0.354123 0.000000
v -4.155733 0.364538 0.000000
v -4.072410 1.208183 0.000000
v -3.905764 1.999751 0.000000
v -3.687041 2.676750 0.000000
v -3.395411 3.332918 0.000000
v -3.145442 3.770364 0.000000
v -2.947550 4.061995 0.000000
v -2.583012 4.509855 0.000000
v -2.312212 4.780655 0.000000
v -1.958090 5.072285 0.000000
v -1.624798 5.291008 0.000000
v -1.301921 5.457654 0.000000
v -0.812399 5.634716 0.000000
v -0.208307 5.738869 0.000000
v 0.427030 5.718039 0.000000
v 0.874891 5.624300 0.000000
v 1.124860 5.540977 0.000000
v 1.593552 5.322254 0.000000
v 2.155982 4.936886 0.000000
v 2.624673 4.489025 0.000000
v 3.051704 3.947425 0.000000
v 3.374580 3.416242 0.000000
v 3.718287 2.655920 0.000000
v 3.937010 1.968505 0.000000
v 4.103656 1.156106 0.000000
v 4.176564 0.406199 0.000000
v 4.176564 -0.395784 0.000000
v 4.145318 -0.801984 0.000000
v 4.041164 -1.499813 0.000000
v 3.926594 -1.989336 0.000000
v 3.739118 -2.583012 0.000000
v 3.541226 -3.062119 0.000000
v 3.270427 -3.582887 0.000000
v 2.957965 -4.061995 0.000000
v 2.645504 -4.447363 0.000000
v 2.291382 -4.801486 0.000000
v 1.926844 -5.093116 0.000000
v 1.541475 -5.332670 0.000000
v 1.104029 -5.530561 0.000000
v 0.676999 -5.655546 0.000000
v 0.260384 -5.718039 0.000000
v -0.239554 -5.718039 0.000000
vt 0.471250 0.001818
vt 0.531250 0.000909
vt 0.581250 0.006364
vt 0.731250 0.055455
vt 0.775000 0.080909
vt 0.632500 0.017273
vt 0.685000 0.034545
vt 0.392500 0.011818
vt 0.320000 0.033636
vt 0.256250 0.063636
vt 0.855000 0.145455
vt 0.892500 0.187273
vt 0.817500 0.111818
vt 0.226250 0.081818
vt 0.971250 0.326364
vt 0.187500 0.110000
vt 0.095000 0.207273
vt 0.031250 0.674545
vt 0.011250 0.605455
vt 0.001250 0.531818
vt 0.925000 0.232727
vt 0.032500 0.323636
vt 0.058750 0.265455
vt 0.948750 0.274545
vt 0.343750 0.976364
vt 0.305000 0.961818
vt 0.265000 0.942727
vt 0.815000 0.891818
vt 0.635000 0.983636
vt 0.551250 0.999091
vt 0.997500 0.430000
vt 0.001250 0.469091
vt 1.001250 0.465455
vt 1.001250 0.535455
vt 0.057500 0.733636
vt 0.146250 0.854545
vt 0.092500 0.790909
vt 0.972500 0.671818
vt 0.012500 0.390000
vt 0.402500 0.991818
vt 0.992500 0.600909
vt 0.985000 0.369091
vt 0.905000 0.798182
vt 0.866250 0.844545
vt 0.946250 0.731818
vt 0.136250 0.157273
vt 0.691250 0.964545
vt 0.758750 0.930909
vt 0.475000 1.000909
vt 0.122500 0.829091
vt 0.222500 0.917273
vt 0.190000 0.893636
vt 0.605000 0.990909
vt 0.433750 0.004545
vn 0.0000 0.0000 1.0000
usemtl Material.001
s off
f 1/1/1 54/2/1 53/3/1
f 1/1/1 50/4/1 49/5/1
f 1/1/1 53/3/1 52/6/1
f 1/1/1 52/6/1 51/7/1
f 3/8/1 1/1/1 4/9/1
f 1/1/1 51/7/1 50/4/1
f 4/9/1 1/1/1 5/10/1
f 47/11/1 46/12/1 48/13/1
f 1/1/1 49/5/1 48/13/1
f 5/10/1 1/1/1 6/14/1
f 43/15/1 1/1/1 46/12/1
f 6/14/1 1/1/1 7/16/1
f 1/1/1 9/17/1 7/16/1
f 16/18/1 15/19/1 14/20/1
f 45/21/1 43/15/1 46/12/1
f 11/22/1 10/23/1 9/17/1
f 44/24/1 43/15/1 45/21/1
f 1/1/1 11/22/1 9/17/1
f 25/25/1 24/26/1 23/27/1
f 33/28/1 30/29/1 28/30/1
f 41/31/1 1/1/1 43/15/1
f 1/1/1 13/32/1 11/22/1
f 1/1/1 40/33/1 39/34/1
f 1/1/1 41/31/1 40/33/1
f 17/35/1 20/36/1 18/37/1
f 37/38/1 28/30/1 39/34/1
f 13/32/1 12/39/1 11/22/1
f 13/32/1 1/1/1 14/20/1
f 1/1/1 26/40/1 14/20/1
f 38/41/1 37/38/1 39/34/1
f 42/42/1 41/31/1 43/15/1
f 26/40/1 25/25/1 20/36/1
f 35/43/1 34/44/1 36/45/1
f 9/17/1 8/46/1 7/16/1
f 37/38/1 33/28/1 28/30/1
f 26/40/1 17/35/1 16/18/1
f 36/45/1 34/44/1 37/38/1
f 31/47/1 30/29/1 33/28/1
f 37/38/1 34/44/1 33/28/1
f 32/48/1 31/47/1 33/28/1
f 17/35/1 26/40/1 20/36/1
f 28/30/1 1/1/1 39/34/1
f 1/1/1 28/30/1 27/49/1
f 20/36/1 19/50/1 18/37/1
f 26/40/1 16/18/1 14/20/1
f 22/51/1 20/36/1 25/25/1
f 22/51/1 21/52/1 20/36/1
f 22/51/1 25/25/1 23/27/1
f 29/53/1 28/30/1 30/29/1
f 46/12/1 1/1/1 48/13/1
f 26/40/1 1/1/1 27/49/1
f 3/8/1 2/54/1 1/1/1
l 55 1
